<?xml version="1.0" standalone="no"?>
<!DOCTYPE svg PUBLIC "-//W3C//DTD SVG 20010904//EN"
 "http://www.w3.org/TR/2001/REC-SVG-20010904/DTD/svg10.dtd">
<svg version="1.0" xmlns="http://www.w3.org/2000/svg"
 width="853.000000pt" height="853.000000pt" viewBox="0 0 853.000000 853.000000"
 preserveAspectRatio="xMidYMid meet">
<metadata>
Created by potrace 1.14, written by Peter Selinger 2001-2017
</metadata>
<g transform="translate(0.000000,853.000000) scale(0.100000,-0.100000)"
fill="#000000" stroke="none">
<path d="M3995 8018 c-596 -42 -1202 -240 -1718 -561 -238 -147 -440 -307
-651 -515 -586 -578 -957 -1306 -1080 -2117 -30 -199 -37 -305 -37 -562 1
-508 77 -917 258 -1378 337 -859 994 -1573 1828 -1988 418 -207 813 -319 1335
-377 141 -16 541 -13 705 4 898 97 1705 485 2320 1117 598 615 958 1387 1051
2254 17 164 20 564 4 705 -29 261 -56 414 -105 605 -278 1062 -986 1936 -1965
2426 -402 201 -813 321 -1275 374 -153 17 -512 24 -670 13z m502 -793 c261
-50 501 -178 693 -369 196 -193 321 -432 376 -711 23 -118 24 -346 1 -471
-100 -553 -542 -993 -1092 -1088 -117 -21 -343 -21 -460 0 -473 81 -874 422
-1034 877 -97 277 -101 590 -10 862 64 192 163 355 303 503 227 237 500 373
836 416 68 8 306 -3 387 -19z m692 -2692 c201 -151 370 -354 476 -568 63 -128
125 -302 125 -349 0 -27 -32 -63 -124 -140 -70 -59 -110 -119 -136 -205 -38
-122 -16 -251 63 -358 47 -62 92 -99 172 -135 43 -20 66 -23 160 -23 100 0
115 2 167 28 88 43 152 107 195 195 37 73 38 80 38 182 0 96 -3 110 -29 165
-17 34 -56 87 -90 121 -49 50 -72 66 -120 80 -84 26 -115 60 -166 184 -24 58
-107 232 -186 388 -78 155 -139 282 -135 282 11 -1 324 -222 401 -283 102 -83
331 -313 414 -417 278 -349 456 -742 542 -1200 39 -208 27 -264 -93 -418 -190
-245 -454 -460 -755 -616 -314 -164 -609 -251 -1162 -346 l-231 -40 -464 0
-465 0 -270 46 c-483 82 -771 167 -1071 314 -272 134 -478 283 -681 492 -197
204 -249 290 -248 418 1 176 112 575 235 843 225 488 598 892 1084 1173 l49
29 -26 -35 c-36 -48 -219 -418 -252 -508 -14 -40 -40 -128 -56 -195 -80 -317
-140 -424 -312 -544 -164 -115 -237 -244 -273 -483 -32 -207 -18 -326 56 -473
42 -83 69 -107 118 -107 32 0 44 6 70 35 37 42 38 57 8 110 -23 40 -40 49
-110 60 -21 3 -52 19 -69 34 -26 23 -32 37 -36 84 -9 110 47 346 115 482 78
157 174 259 302 323 65 32 84 37 166 40 114 5 172 -11 268 -75 152 -102 297
-347 336 -567 6 -33 11 -109 11 -170 l1 -111 29 33 c29 31 30 36 30 125 0 177
-56 358 -155 506 -90 135 -268 284 -401 336 -40 16 -42 18 -48 73 -7 65 6 213
29 321 80 383 351 763 632 887 31 14 59 24 64 22 5 -2 194 -347 420 -768 226
-421 414 -768 417 -772 4 -4 205 343 447 772 242 429 442 779 444 780 2 0 38
-26 80 -57z m813 -1123 c86 -24 171 -126 184 -222 10 -70 -18 -150 -72 -208
-114 -122 -283 -119 -393 6 -175 199 22 495 281 424z"/>
<path d="M3490 2300 l0 -380 95 0 95 0 2 248 3 247 130 -247 130 -248 113 0
112 0 0 380 0 380 -95 0 -95 0 -2 -249 -3 -249 -130 249 -130 248 -112 1 -113
0 0 -380z"/>
<path d="M4270 2605 l0 -75 125 0 125 0 0 -305 0 -305 100 0 100 0 0 305 0
305 125 0 125 0 0 75 0 75 -350 0 -350 0 0 -75z"/>
<path d="M3103 2250 c-81 -17 -153 -75 -153 -125 0 -33 61 -95 93 -95 58 0
126 91 142 188 8 47 4 49 -82 32z"/>
</g>
</svg>
